<svg width="76" height="74" viewBox="0 0 76 74" fill="none" xmlns="http://www.w3.org/2000/svg">
<g filter="url(#filter0_d)">
<ellipse cx="38" cy="33" rx="34" ry="33" fill="#FF0404"/>
<path d="M32.833 28.8975L30.4272 38H28.1548L26.644 32.1602C26.5636 31.8555 26.515 31.5148 26.498 31.1382H26.4727C26.4346 31.5529 26.3796 31.8936 26.3076 32.1602L24.7588 38H22.3911L19.998 28.8975H22.2388L23.521 34.9595C23.576 35.2176 23.6162 35.5646 23.6416 36.0005H23.6797C23.6966 35.6746 23.758 35.3192 23.8638 34.9341L25.5142 28.8975H27.7104L29.2021 35.0103C29.2572 35.2345 29.3058 35.5604 29.3481 35.9878H29.3735C29.3905 35.6535 29.4349 35.3149 29.5068 34.9722L30.7637 28.8975H32.833ZM36.8003 28.8975V30.4844H36.0386V36.4131H36.8003V38H33.2266V36.4131H33.9883V30.4844H33.2266V28.8975H36.8003ZM44.5063 30.5669H41.9102V38H39.8535V30.5669H37.27V28.8975H44.5063V30.5669ZM52.2822 38H44.9507V36.8193L49.6162 30.5669H45.2871V28.8975H52.2695V30.0464L47.7056 36.3369H52.2822V38ZM54.3262 38.1587C53.9961 38.1587 53.721 38.0571 53.501 37.854C53.2809 37.6509 53.1709 37.4012 53.1709 37.105C53.1709 36.8003 53.283 36.5506 53.5073 36.356C53.7358 36.1613 54.0194 36.064 54.3579 36.064C54.7007 36.064 54.98 36.1634 55.1958 36.3623C55.4159 36.557 55.5259 36.8045 55.5259 37.105C55.5259 37.4139 55.4137 37.6678 55.1895 37.8667C54.9694 38.0614 54.6816 38.1587 54.3262 38.1587Z" fill="black"/>
</g>
<defs>
<filter id="filter0_d" x="0" y="0" width="76" height="74" filterUnits="userSpaceOnUse" color-interpolation-filters="sRGB">
<feFlood flood-opacity="0" result="BackgroundImageFix"/>
<feColorMatrix in="SourceAlpha" type="matrix" values="0 0 0 0 0 0 0 0 0 0 0 0 0 0 0 0 0 0 127 0"/>
<feOffset dy="4"/>
<feGaussianBlur stdDeviation="2"/>
<feColorMatrix type="matrix" values="0 0 0 0 0 0 0 0 0 0 0 0 0 0 0 0 0 0 0.25 0"/>
<feBlend mode="normal" in2="BackgroundImageFix" result="effect1_dropShadow"/>
<feBlend mode="normal" in="SourceGraphic" in2="effect1_dropShadow" result="shape"/>
</filter>
</defs>
</svg>
